# xmcd
#
# Track frame offsets:
#	150
#	6753
#	31389
#	50583
#	65391
#	81587
#	91411
#	106778
#	123347
#	144658
#	164478
#	186450
#	202173
#
# Disc length: 3075 seconds
#
# Revision: 0
# Processed by: cddbd v1.5.2PL0 Copyright (c) Steve Scherf et al.
# Submitted via: EasyCDDAExtractor 8.0.0.2
#
DISCID=bb0c010d
DTITLE=Johnny Hiland - Loud And Proud
DYEAR=2007
DGENRE=Country
TTITLE0=Intro
TTITLE1=Groovin
TTITLE2=Honky Tonk Night Time Man
TTITLE3=Rock It
TTITLE4=Rockin Route 9
TTITLE5=My Sweet Kimmie Girl
TTITLE6=Loud And Proud
TTITLE7=I Never
TTITLE8=Chicken And Cheese
TTITLE9=Little Girls Lullaby
TTITLE10=Mercury Blues
TTITLE11=Standing On New Ground
TTITLE12=Chicken Pickin' Heroes
EXTD=
EXTT0=
EXTT1=
EXTT2=
EXTT3=
EXTT4=
EXTT5=
EXTT6=
EXTT7=
EXTT8=
EXTT9=
EXTT10=
EXTT11=
EXTT12=
PLAYORDER=
